<?xml version="1.0" standalone="no"?>
<!DOCTYPE svg PUBLIC "-//W3C//DTD SVG 20010904//EN"
 "http://www.w3.org/TR/2001/REC-SVG-20010904/DTD/svg10.dtd">
<svg version="1.0" xmlns="http://www.w3.org/2000/svg"
 width="700.000000pt" height="700.000000pt" viewBox="0 0 700.000000 700.000000"
 preserveAspectRatio="xMidYMid meet">
<metadata>
Created by potrace 1.14, written by Peter Selinger 2001-2017
</metadata>
<g transform="translate(0.000000,700.000000) scale(0.100000,-0.100000)"
fill="#000000" stroke="none">
<path d="M1315 6230 c-1 -3 -3 -123 -2 -268 0 -144 -3 -265 -7 -269 -3 -3
-126 -7 -273 -7 l-267 -1 -1 -270 0 -270 -273 -3 -272 -2 0 -138 c0 -199 0
-1290 0 -1404 l0 -98 272 -2 273 -3 0 -270 0 -270 267 -1 c147 0 271 -3 275
-7 3 -4 6 -126 6 -271 -1 -263 -1 -264 20 -268 12 -2 136 -3 275 -3 l252 1 0
-273 0 -273 273 0 273 0 0 -266 c-1 -146 1 -270 4 -274 3 -5 126 -8 273 -7
231 2 267 0 268 -13 0 -8 1 -131 1 -272 1 -181 4 -258 12 -259 6 -1 251 -2
544 -3 465 -1 533 1 536 14 3 8 4 129 3 268 -1 140 2 256 6 259 4 2 127 5 272
5 196 0 265 3 266 11 0 7 1 130 2 275 l1 262 273 0 273 0 0 273 0 274 258 -2
c141 0 264 2 273 7 15 7 17 36 17 267 0 143 3 264 5 268 3 4 124 7 269 7 144
-1 265 2 268 6 3 5 5 128 5 274 l-1 266 273 0 273 0 0 45 c1 25 1 83 1 130 0
47 0 396 -1 775 l0 690 -273 0 -273 0 0 274 1 274 -273 -2 -272 -1 -1 45 c0
25 0 147 0 273 1 175 -2 227 -11 228 -7 1 -376 2 -821 3 l-807 1 -1 -30 c-1
-16 -1 -139 -1 -272 0 -173 -4 -243 -12 -244 -17 -1 -1038 -1 -1062 0 -22 1
-22 2 -20 271 0 149 -1 271 -4 271 -17 4 -1632 3 -1635 -1z"/>
</g>
</svg>
